<svg xmlns="http://www.w3.org/2000/svg" viewBox="0 0 2856.18 605.98"><defs><style>.cls-1,.cls-2,.cls-3,.cls-4,.cls-5,.cls-6{fill:#fff;}.cls-1,.cls-2,.cls-3,.cls-4{stroke:#fff;stroke-miterlimit:10;}.cls-1{stroke-width:6.14px;}.cls-2{stroke-width:6.34px;}.cls-3{stroke-width:6.04px;}.cls-4{stroke-width:6.81px;}.cls-6{font-size:187.5px;font-family:Seravek-Italic, Seravek;font-style:italic;}.cls-7{letter-spacing:0em;}.cls-8{letter-spacing:-0.01em;}</style></defs><title>FullSplash</title><g id="Layer_2" data-name="Layer 2"><g id="Layer_1-2" data-name="Layer 1"><rect class="cls-1" x="2259.59" y="105.3" width="98.58" height="419.73" rx="3.22" ry="3.22"/><rect class="cls-2" x="2435.13" y="3.17" width="286.99" height="31.5" rx="3.17" ry="3.17"/><rect class="cls-1" x="2405.43" y="105.3" width="98.58" height="419.73" rx="3.22" ry="3.22"/><path class="cls-2" d="M2714.85,498l-162.29,26.94c-2.89.48-5.25-1-5.24-3.2l2-486.61c0-2.24,2.38-4.46,5.27-4.94L2716.89,3.26c2.89-.48,5.25,1,5.24,3.2l-2,486.61C2720.11,495.3,2717.74,497.53,2714.85,498Z"/><path class="cls-3" d="M2847.2,470.06l-132.5,28.18a2.44,2.44,0,0,1-3.16-2.39L2714.28,220a4.15,4.15,0,0,1,3.22-3.75L2850,188.1a2.44,2.44,0,0,1,3.16,2.39l-2.75,275.82A4.15,4.15,0,0,1,2847.2,470.06Z"/><path class="cls-2" d="M2262.32,66.18l.13-31c0-2.24,2.38-4.46,5.27-4.94L2430,3.26c2.89-.48,5.25,1,5.24,3.2L2435,63.19"/><rect class="cls-4" x="2387.79" y="-96.69" width="33.91" height="290.31" rx="1.57" ry="1.57" transform="translate(2356.28 2453.2) rotate(-90)"/><path class="cls-5" d="M207.81,355.85V216H69.94V355.85H0V23.15H69.94V158H207.81V23.15h69.94v332.7Z"/><path class="cls-5" d="M479.06,329.87a121,121,0,0,1-32.47,22q-19,9-44,9a76.72,76.72,0,0,1-29-5.24,63.11,63.11,0,0,1-22-14.49,65.75,65.75,0,0,1-14-21.73,73.28,73.28,0,0,1-5-27.47q0-33.46,22.48-51t61.44-20q15-1,31-1.5t29-1V210q0-23.47-11.49-35.72t-36-12.24a140,140,0,0,0-36,4.5,137.1,137.1,0,0,0-30,11.49l-13.49-48a161.49,161.49,0,0,1,42-16.73,203.6,203.6,0,0,1,49.45-5.75q48.45,0,76.18,26.48T545,212.48V355.85H479.06Zm-51.45-15.49a72,72,0,0,0,27-5,87.86,87.86,0,0,0,22-12.49V258.44q-10.49,1-22.48,2t-22,2.5q-15,2.51-24,8.24t-9,19.23q0,12,7.74,18T427.61,314.39Z"/><path class="cls-5" d="M718.84,107.58a194.42,194.42,0,0,1,37.21,3.75q19.23,3.75,32.22,10.74l-7.49,49q-23.49-10.49-52-10.49-36,0-53,19.73t-17,53.7q0,34,17,54t53,20q28.47,0,52-10.49l7.49,49q-13,7-32.22,10.74a194.57,194.57,0,0,1-37.21,3.75q-31.47,0-55.45-9.74t-40.21-26.73a111.15,111.15,0,0,1-24.48-40.21,149.1,149.1,0,0,1-8.24-50.2,149.12,149.12,0,0,1,8.24-50.2,108.83,108.83,0,0,1,24.48-40q16.23-16.73,40.21-26.48T718.84,107.58Z"/><path class="cls-5" d="M835.23,355.85V3.17h68.44V227l80.92-114.4h75.93L974.1,232.46l98.41,123.39H991.09L903.67,237.46V355.85Z"/><path class="cls-5" d="M1338.27,128.06q0,27.48-11.49,48a101.32,101.32,0,0,1-31.47,34.22q-20,13.75-47.21,20.48a241.51,241.51,0,0,1-58.2,6.74h-13.49V355.85h-69.94V23.15h90.92a236,236,0,0,1,55.7,6.25q25.72,6.25,44.71,19.23a93.35,93.35,0,0,1,29.72,32.72Q1338.26,101.09,1338.27,128.06Zm-69.94,0q0-26-19.23-38.22T1196.9,77.6h-20.48V183h17q35,0,54.95-13.49T1268.33,128.06Z"/><path class="cls-5" d="M1512.6,329.87a121,121,0,0,1-32.47,22q-19,9-44,9a76.72,76.72,0,0,1-29-5.24,63.11,63.11,0,0,1-22-14.49,65.75,65.75,0,0,1-14-21.73,73.28,73.28,0,0,1-5-27.47q0-33.46,22.48-51t61.44-20q15-1,31-1.5t29-1V210q0-23.47-11.49-35.72t-36-12.24a140,140,0,0,0-36,4.5,137.1,137.1,0,0,0-30,11.49l-13.49-48a161.49,161.49,0,0,1,42-16.73,203.6,203.6,0,0,1,49.45-5.75q48.45,0,76.18,26.48t27.72,78.43V355.85H1512.6Zm-51.45-15.49a72,72,0,0,0,27-5,87.86,87.86,0,0,0,22-12.49V258.44q-10.49,1-22.48,2t-22,2.5q-15,2.51-24,8.24t-9,19.23q0,12,7.74,18T1461.15,314.39Z"/><path class="cls-5" d="M1752.38,107.58a194.42,194.42,0,0,1,37.21,3.75q19.23,3.75,32.22,10.74l-7.49,49q-23.49-10.49-52-10.49-36,0-53,19.73t-17,53.7q0,34,17,54t53,20q28.47,0,52-10.49l7.49,49q-13,7-32.22,10.74a194.57,194.57,0,0,1-37.21,3.75q-31.47,0-55.45-9.74t-40.21-26.73a111.15,111.15,0,0,1-24.48-40.21A149.1,149.1,0,0,1,1624,234a149.12,149.12,0,0,1,8.24-50.2,108.83,108.83,0,0,1,24.48-40q16.23-16.73,40.21-26.48T1752.38,107.58Z"/><path class="cls-5" d="M1868.77,355.85V3.17h68.44V227l80.92-114.4h75.93l-86.42,119.89,98.41,123.39h-81.43l-87.42-118.39V355.85Z"/><text class="cls-6" transform="translate(1383.27 523.85)"><tspan class="cls-7">b</tspan><tspan x="97.87" y="0">y</tspan><tspan class="cls-8" x="180.75" y="0"> </tspan><tspan x="218.24" y="0">TUDev</tspan></text></g></g></svg>