<?xml version="1.0" encoding="utf-8"?>
<!-- Generator: Adobe Illustrator 21.1.0, SVG Export Plug-In . SVG Version: 6.00 Build 0)  -->
<svg version="1.1" id="Layer_1" xmlns="http://www.w3.org/2000/svg" xmlns:xlink="http://www.w3.org/1999/xlink" x="0px" y="0px"
	 viewBox="0 0 2856.2 606" style="enable-background:new 0 0 2856.2 606;" xml:space="preserve">
<style type="text/css">
	.st0{fill:#FFFFFF;stroke:#FFFFFF;stroke-width:6.14;stroke-miterlimit:10;}
	.st1{fill:#FFFFFF;stroke:#FFFFFF;stroke-width:6.34;stroke-miterlimit:10;}
	.st2{fill:#FFFFFF;stroke:#FFFFFF;stroke-width:6.04;stroke-miterlimit:10;}
	.st3{fill:#FFFFFF;stroke:#FFFFFF;stroke-width:6.81;stroke-miterlimit:10;}
	.st4{fill:#FFFFFF;}
	.st5{font-family:'Seravek-Italic';}
	.st6{font-size:187.5px;}
	.st7{letter-spacing:-1;}
	.st8{fill:#333333;stroke:#FFFFFF;stroke-width:3;stroke-miterlimit:10;}
</style>
<title>FullSplash</title>
<path class="st0" d="M2262.8,105.3h92.1c1.8,0,3.2,1.4,3.2,3.2v413.3c0,1.8-1.4,3.2-3.2,3.2h-92.1c-1.8,0-3.2-1.4-3.2-3.2V108.5
	C2259.6,106.7,2261,105.3,2262.8,105.3z"/>
<path class="st1" d="M2438.3,3.2h280.7c1.8,0,3.2,1.4,3.2,3.2v25.2c0,1.8-1.4,3.2-3.2,3.2h-280.7c-1.8,0-3.2-1.4-3.2-3.2V6.3
	C2435.1,4.6,2436.5,3.2,2438.3,3.2z"/>
<path class="st0" d="M2408.6,105.3h92.1c1.8,0,3.2,1.4,3.2,3.2v413.3c0,1.8-1.4,3.2-3.2,3.2h-92.1c-1.8,0-3.2-1.4-3.2-3.2V108.5
	C2405.4,106.7,2406.9,105.3,2408.6,105.3z"/>
<path class="st1" d="M2714.9,498l-162.3,26.9c-2.9,0.5-5.2-1-5.2-3.2l2-486.6c0-2.2,2.4-4.5,5.3-4.9l162.3-26.9
	c2.9-0.5,5.2,1,5.2,3.2l-2,486.6C2720.1,495.3,2717.7,497.5,2714.9,498z"/>
<path class="st2" d="M2847.2,470.1l-132.5,28.2c-1.3,0.4-2.7-0.3-3.1-1.6c-0.1-0.3-0.1-0.5-0.1-0.8l2.7-275.8
	c0.1-1.8,1.4-3.3,3.2-3.8l132.5-28.1c1.3-0.4,2.7,0.3,3.1,1.6c0.1,0.3,0.1,0.5,0.1,0.8l-2.8,275.8
	C2850.3,468.1,2849,469.7,2847.2,470.1z"/>
<path class="st1" d="M2262.3,66.2l0.1-31c0-2.2,2.4-4.5,5.3-4.9l162.3-27c2.9-0.5,5.2,1,5.2,3.2l-0.2,56.7"/>
<path class="st3" d="M2259.6,63.8V33.1c0-0.9,0.7-1.6,1.6-1.6h287.2c0.9,0,1.6,0.7,1.6,1.6v30.8c0,0.9-0.7,1.6-1.6,1.6h-287.2
	C2260.3,65.4,2259.6,64.7,2259.6,63.8z"/>
<path class="st4" d="M207.8,355.9V216H69.9v139.9H0V23.1h69.9V158h137.9V23.1h69.9v332.7H207.8z"/>
<path class="st4" d="M479.1,329.9c-9.6,9.1-20.5,16.5-32.5,22c-12.7,6-27.3,9-44,9c-9.9,0.1-19.8-1.6-29-5.2
	c-8.3-3.2-15.8-8.2-22-14.5c-6.1-6.2-10.8-13.6-14-21.7c-3.4-8.8-5.1-18.1-5-27.5c0-22.3,7.5-39.3,22.5-51s35.5-18.4,61.4-20
	c10-0.7,20.3-1.2,31-1.5s20.3-0.7,29-1V210c0-15.6-3.8-27.6-11.5-35.7c-7.7-8.2-19.7-12.2-36-12.2c-12.1-0.1-24.2,1.4-36,4.5
	c-10.4,2.6-20.5,6.5-30,11.5l-13.5-48c13.1-7.5,27.3-13.2,42-16.7c16.2-3.9,32.8-5.9,49.5-5.8c32.3,0,57.7,8.8,76.2,26.5
	c18.5,17.7,27.8,43.8,27.8,78.4v143.4h-65.9V329.9z M427.6,314.4c9.2,0.1,18.4-1.6,27-5c7.9-3.1,15.3-7.3,22-12.5v-38.5
	c-7,0.7-14.5,1.3-22.5,2s-15.3,1.5-22,2.5c-10,1.7-18,4.4-24,8.2s-9,10.2-9,19.2c0,8,2.6,14,7.7,18
	C412,312.4,418.9,314.4,427.6,314.4L427.6,314.4z"/>
<path class="st4" d="M718.8,107.6c12.5,0.1,25,1.3,37.2,3.8c12.8,2.5,23.6,6.1,32.2,10.7l-7.5,49c-15.7-7-33-10.5-52-10.5
	c-24,0-41.7,6.6-53,19.7s-17,31.1-17,53.7c0,22.7,5.7,40.7,17,54s29,20,53,20c19,0,36.3-3.5,52-10.5l7.5,49
	c-8.7,4.7-19.4,8.2-32.2,10.7c-12.3,2.4-24.7,3.7-37.2,3.8c-21,0-39.5-3.2-55.5-9.7s-29.4-15.4-40.2-26.7
	c-10.9-11.5-19.3-25.2-24.5-40.2c-5.6-16.1-8.4-33.1-8.2-50.2c-0.1-17.1,2.6-34.1,8.2-50.2c5.2-15,13.5-28.6,24.5-40
	c10.8-11.2,24.2-20,40.2-26.5C679.4,111,697.9,107.7,718.8,107.6z"/>
<path class="st4" d="M835.2,355.9V3.2h68.4V227l80.9-114.4h75.9l-86.4,119.9l98.4,123.4h-81.4l-87.4-118.4v118.4H835.2z"/>
<path class="st4" d="M1338.3,128.1c0,18.3-3.8,34.3-11.5,48c-7.7,13.7-18.5,25.4-31.5,34.2c-13.3,9.2-29.1,16-47.2,20.5
	c-19.1,4.6-38.6,6.9-58.2,6.7h-13.5v118.4h-69.9V23.1h90.9c18.7-0.1,37.4,2,55.7,6.2c17.1,4.2,32,10.6,44.7,19.2
	c12.4,8.4,22.6,19.6,29.7,32.7C1334.7,94.5,1338.3,110.1,1338.3,128.1z M1268.3,128.1c0-17.3-6.4-30.1-19.2-38.2
	s-30.2-12.2-52.2-12.2h-20.5V183h17c23.3,0,41.6-4.5,54.9-13.5C1261.7,160.5,1268.3,146.7,1268.3,128.1L1268.3,128.1z"/>
<path class="st4" d="M1512.6,329.9c-9.6,9.1-20.5,16.5-32.5,22c-12.7,6-27.3,9-44,9c-9.9,0.1-19.8-1.6-29-5.2
	c-8.3-3.2-15.8-8.2-22-14.5c-6.1-6.2-10.8-13.6-14-21.7c-3.4-8.8-5.1-18.1-5-27.5c0-22.3,7.5-39.3,22.5-51
	c15-11.7,35.5-18.4,61.4-20c10-0.7,20.3-1.2,31-1.5c10.7-0.3,20.3-0.7,29-1V210c0-15.6-3.8-27.6-11.5-35.7
	c-7.7-8.2-19.7-12.2-36-12.2c-12.1-0.1-24.2,1.4-36,4.5c-10.4,2.6-20.5,6.5-30,11.5l-13.5-48c13.1-7.5,27.3-13.2,42-16.7
	c16.2-3.9,32.8-5.9,49.4-5.8c32.3,0,57.7,8.8,76.2,26.5s27.7,43.8,27.7,78.4v143.4h-65.8V329.9z M1461.2,314.4
	c9.2,0.1,18.4-1.6,27-5c7.9-3.1,15.3-7.3,22-12.5v-38.5c-7,0.7-14.5,1.3-22.5,2c-8,0.7-15.3,1.5-22,2.5c-10,1.7-18,4.4-24,8.2
	s-9,10.2-9,19.2c0,8,2.6,14,7.7,18C1445.6,312.4,1452.5,314.4,1461.2,314.4L1461.2,314.4z"/>
<path class="st4" d="M1752.4,107.6c12.5,0.1,25,1.3,37.2,3.8c12.8,2.5,23.6,6.1,32.2,10.7l-7.5,49c-15.7-7-33-10.5-52-10.5
	c-24,0-41.7,6.6-53,19.7c-11.3,13.2-17,31.1-17,53.7c0,22.7,5.7,40.7,17,54c11.3,13.3,29,20,53,20c19,0,36.3-3.5,52-10.5l7.5,49
	c-8.7,4.7-19.4,8.2-32.2,10.7c-12.3,2.4-24.7,3.7-37.2,3.8c-21,0-39.5-3.2-55.4-9.7c-16-6.5-29.4-15.4-40.2-26.7
	c-10.9-11.5-19.3-25.2-24.5-40.2c-5.6-16.2-8.4-33.2-8.2-50.3c-0.1-17.1,2.6-34.1,8.2-50.2c5.2-15,13.5-28.6,24.5-40
	c10.8-11.2,24.2-20,40.2-26.5C1712.9,110.8,1731.4,107.6,1752.4,107.6z"/>
<path class="st4" d="M1868.8,355.9V3.2h68.4V227l80.9-114.4h75.9l-86.4,119.9l98.4,123.4h-81.4l-87.4-118.4v118.4H1868.8z"/>
<text transform="matrix(1 0 0 1 1383.27 523.85)" class="st4 st5 st6">b</text>
<text transform="matrix(1 0 0 1 1481.14 523.85)" class="st4 st5 st6">y</text>
<text transform="matrix(1 0 0 1 1564.02 523.85)" class="st4 st5 st6 st7"> </text>
<text transform="matrix(1 0 0 1 1601.51 523.85)" class="st4 st5 st6">TUDev</text>
<path class="st8" d="M2723,208.2c0.1,2.5,2.2,4.4,4.7,4.3"/>
</svg>
