<svg id="Layer_1" data-name="Layer 1" xmlns="http://www.w3.org/2000/svg" viewBox="0 0 600 528.21"><defs><style>.cls-1,.cls-2,.cls-3,.cls-4{fill:#333;stroke:#333;stroke-miterlimit:10;}.cls-1{stroke-width:6.14px;}.cls-2{stroke-width:6.34px;}.cls-3{stroke-width:6.04px;}.cls-4{stroke-width:6.81px;}</style></defs><title>HackPackBlack</title><rect class="cls-1" x="3.4" y="105.3" width="98.58" height="419.73" rx="3.22" ry="3.22"/><rect class="cls-2" x="178.95" y="3.17" width="286.99" height="31.5" rx="3.17" ry="3.17"/><rect class="cls-1" x="149.25" y="105.3" width="98.58" height="419.73" rx="3.22" ry="3.22"/><path class="cls-2" d="M458.67,498,296.38,524.94c-2.89.48-5.25-1-5.24-3.2l2-486.61c0-2.24,2.38-4.46,5.27-4.94L460.71,3.26c2.89-.48,5.25,1,5.24,3.2l-2,486.61C463.93,495.3,461.56,497.53,458.67,498Z"/><path class="cls-3" d="M591,470.06l-132.5,28.18a2.44,2.44,0,0,1-3.16-2.39L458.1,220a4.15,4.15,0,0,1,3.22-3.75l132.5-28.18A2.44,2.44,0,0,1,597,190.5l-2.75,275.82A4.15,4.15,0,0,1,591,470.06Z"/><path class="cls-2" d="M6.14,66.18l.13-31c0-2.24,2.38-4.46,5.27-4.94L173.83,3.26c2.89-.48,5.25,1,5.24,3.2l-.23,56.73"/><rect class="cls-4" x="131.61" y="-96.69" width="33.91" height="290.31" rx="1.57" ry="1.57" transform="translate(100.1 197.02) rotate(-90)"/></svg>