<svg id="Layer_1" data-name="Layer 1" xmlns="http://www.w3.org/2000/svg" viewBox="0 0 12331.84 3109.05"><defs><style>.cls-1{fill:#fff;stroke:#ddd;stroke-miterlimit:10;stroke-width:40px;}.cls-2{fill:#dfa22f;}.cls-3{fill:#3cb187;}.cls-4{fill:#ce1e5b;}.cls-5{fill:#392538;}.cls-6{fill:#bb242a;}.cls-7{fill:#72c5cd;}.cls-8{fill:#248c73;}.cls-9{fill:#62803a;}.cls-10{font-size:1175.72px;font-family:OpenSans-Regular, Open Sans;}.cls-11{font-family:OpenSans-SemiBold, Open Sans;font-weight:700;}</style></defs><title>slack</title><rect class="cls-1" x="20" y="20" width="12291.84" height="3069.05" rx="333.6" ry="333.6"/><path class="cls-2" d="M1598.81,750.26a163.4,163.4,0,0,0-310.81,101l422.53,1300a163.41,163.41,0,0,0,198.78,101.32c86.73-25,139.6-117.08,111.92-202.26L1598.81,750.26"/><path class="cls-3" d="M944.09,963a163.41,163.41,0,1,0-310.83,101l422.54,1300a163.38,163.38,0,0,0,198.78,101.3c86.73-25,139.59-117.07,111.91-202.26L944.09,963"/><path class="cls-4" d="M2130.66,1826.95a163.41,163.41,0,0,0-101-310.82l-1300,422.55a163.39,163.39,0,0,0-101.32,198.77c25,86.73,117.08,139.6,202.26,111.92L2130.66,1827"/><path class="cls-5" d="M1000.59,2194.13l310.71-101-101-310.75-310.73,101,101,310.71"/><path class="cls-6" d="M1655.31,1981.39c117.47-38.16,226.65-73.64,310.72-101l-101-310.8-310.73,101,101,310.76"/><path class="cls-7" d="M1917.93,1172.23a163.41,163.41,0,1,0-101-310.83L516.89,1284a163.35,163.35,0,0,0-101.3,198.76c25,86.72,117.07,139.59,202.26,111.91l1300.07-422.41"/><path class="cls-8" d="M787.8,1539.42c84.62-27.5,193.72-62.95,310.76-101-38.16-117.48-73.64-226.67-101-310.75l-310.8,101,101,310.7"/><path class="cls-9" d="M1442.51,1326.7l310.78-101q-50.49-155.4-101-310.8l-310.78,101,101,310.78"/><text class="cls-10" transform="translate(2419.9 1892.37)">Sign in with <tspan class="cls-11" x="6592.17" y="0">Slack</tspan></text></svg>