<svg id="Layer_1" data-name="Layer 1" xmlns="http://www.w3.org/2000/svg" viewBox="0 0 12331.84 3109.05"><defs><style>.cls-1{fill:#fff;stroke:#ddd;stroke-miterlimit:10;stroke-width:40px;}.cls-2{fill:#dfa22f;}.cls-3{fill:#3cb187;}.cls-4{fill:#ce1e5b;}.cls-5{fill:#392538;}.cls-6{fill:#bb242a;}.cls-7{fill:#72c5cd;}.cls-8{fill:#248c73;}.cls-9{fill:#62803a;}.cls-10{isolation:isolate;}</style></defs><title>slack</title><rect class="cls-1" x="20" y="20" width="12291.84" height="3069.05" rx="333.6" ry="333.6"/><path class="cls-2" d="M1598.81,750.26a163.4,163.4,0,0,0-310.81,101l422.53,1300a163.41,163.41,0,0,0,198.78,101.32c86.73-25,139.6-117.08,111.92-202.26L1598.81,750.26"/><path class="cls-3" d="M944.09,963a163.41,163.41,0,1,0-310.83,101L1055.8,2364a163.38,163.38,0,0,0,198.78,101.3c86.73-25,139.59-117.07,111.91-202.26L944.09,963"/><path class="cls-4" d="M2130.66,1826.95a163.41,163.41,0,0,0-101-310.82l-1300,422.55a163.39,163.39,0,0,0-101.32,198.77c25,86.73,117.08,139.6,202.26,111.92L2130.66,1827"/><path class="cls-5" d="M1000.59,2194.13l310.71-101-101-310.75-310.73,101,101,310.71"/><path class="cls-6" d="M1655.31,1981.39c117.47-38.16,226.65-73.64,310.72-101l-101-310.8-310.73,101,101,310.76"/><path class="cls-7" d="M1917.93,1172.23a163.41,163.41,0,1,0-101-310.83h0L516.89,1284a163.35,163.35,0,0,0-101.3,198.76c25,86.72,117.07,139.59,202.26,111.91l1300.07-422.41"/><path class="cls-8" d="M787.8,1539.42c84.62-27.5,193.72-62.95,310.76-101-38.16-117.48-73.64-226.67-101-310.75l-310.8,101,101,310.7"/><path class="cls-9" d="M1442.51,1326.7l310.78-101q-50.49-155.4-101-310.8l-310.78,101,101,310.78"/><g class="cls-10"><g class="cls-10"><path d="M3008.67,1668.53q0,110.81-80.34,172.83t-218.06,62q-149.2,0-229.53-38.67v-94.41q51.63,21.82,112.45,34.45a591.31,591.31,0,0,0,120.5,12.63q97.52,0,146.88-36.91t49.34-102.75q0-43.64-17.5-71.48t-58.53-51.39q-41-23.53-124.78-53.41-117-41.91-167.25-99.33t-50.2-149.86q0-97,72.88-154.45t192.81-57.42q125.09,0,230.11,45.8L2957,1171q-103.85-43.64-202-43.64-77.48,0-121.08,33.38t-43.59,92.64q0,43.64,16.06,71.48t54.22,51.11q38.16,23.25,116.77,51.39,132,47.09,181.58,101.06T3008.67,1668.53Z"/><path d="M3158,1092.59q0-32.77,16.08-48t40.2-15.23a56.1,56.1,0,0,1,39.61,15.52q16.64,15.52,16.66,47.7t-16.66,48a55.56,55.56,0,0,1-39.61,15.8q-24.14,0-40.2-15.8T3158,1092.59Zm103.36,799.78h-95.33v-629h95.33Z"/><path d="M3978.42,1263.37v60.23l-116.52,13.77q16.08,20.13,28.7,52.63t12.63,73.34q0,92.6-63.14,147.81t-173.31,55.22a288.31,288.31,0,0,1-52.8-4.59q-60.84,32.2-60.84,81,0,25.88,21.23,38.22t72.89,12.34H3758.6q102.14,0,157,43t54.81,125q0,104.39-83.8,159.17t-244.52,54.77q-123.42,0-190.28-45.84T3384.93,2000q0-57.3,36.73-99.12T3525,1844.17q-24.12-10.92-40.47-33.94t-16.36-53.52q0-34.5,18.36-60.41t58-50.06q-48.8-20.13-79.5-68.48t-30.7-110.53q0-103.59,62-159.73t175.64-56.12q49.36,0,89,12Zm-501.61,735.5q0,50.88,43,77.2t123.39,26.3q119.93,0,177.61-35.73t57.67-96.92q0-50.91-31.56-70.61t-118.8-19.73H3614q-64.85,0-101,30.88T3476.81,1998.87Zm51.66-534.09q0,66.45,37.3,100.52t103.86,34.08q139.43,0,139.44-136.33,0-142.66-141.16-142.67-67.15,0-103.3,36.39T3528.46,1464.78Z"/><path d="M4538.58,1892.37V1485.15q0-77-35-114.87t-109.72-37.91q-98.81,0-144.78,53.42t-46,176.33v330.25h-95.33v-629h77.53l15.5,85.64h4.59q29.3-46.5,82.14-72.08t117.75-25.56q113.72,0,171.17,54.86t57.45,175.47v410.67Z"/><path d="M5126.57,1092.59q0-32.77,16.08-48t40.2-15.23a56.1,56.1,0,0,1,39.61,15.52q16.64,15.52,16.66,47.7t-16.66,48a55.56,55.56,0,0,1-39.61,15.8q-24.14,0-40.2-15.8T5126.57,1092.59Zm103.36,799.78H5134.6v-629h95.33Z"/><path d="M5863,1892.37V1485.15q0-77-35-114.87t-109.72-37.91q-98.81,0-144.78,53.42t-46,176.33v330.25h-95.33v-629h77.53l15.5,85.64h4.59q29.3-46.5,82.14-72.08t117.75-25.56q113.72,0,171.17,54.86t57.45,175.47v410.67Z"/><path d="M6973.28,1892.37l-115.45-369q-10.92-33.84-40.78-153.81h-4.61q-23,100.45-40.2,155l-118.89,367.88H6543.06l-171.75-629h99.94q60.89,237,92.77,361t36.48,167h4.59q6.3-32.72,20.38-84.66t24.42-82.36l115.45-361h103.39l112.58,361q32.16,98.72,43.66,165.86h4.59q2.3-20.65,12.34-63.7t119.77-463.14h98.8l-174,629Z"/><path d="M7365.49,1092.59q0-32.77,16.08-48t40.2-15.23a56.1,56.1,0,0,1,39.61,15.52q16.64,15.52,16.66,47.7t-16.66,48a55.56,55.56,0,0,1-39.61,15.8q-24.14,0-40.2-15.8T7365.49,1092.59Zm103.36,799.78h-95.33v-629h95.33Z"/><path d="M7874.22,1824.37a309.69,309.69,0,0,0,48.78-3.73q23.53-3.73,37.3-7.75v73.19q-15.52,7.5-45.64,12.41t-54.23,4.89q-182.53,0-182.53-192.11V1337.37h-90.11v-46l90.14-39.64,40.19-134.41h55.11v146h182.48v74H7773.22v369.55q0,56.72,27,87.09T7874.22,1824.37Z"/><path d="M8517,1892.37V1485.15q0-77-35-114.87t-109.72-37.91q-99.4,0-145.06,54t-45.67,176.89v329.11h-95.33v-893h95.33v269.87q0,48.7-4.59,80.8h5.75q28.13-45.37,80.13-71.53t118.61-26.14q115.45,0,173.19,54.88t57.73,174.36v410.77Z"/></g><g class="cls-10"><path d="M9613.54,1658.73q0,113.72-81.86,179.17t-227.77,65.47q-134.44,0-237.83-50.53V1687.46q85,37.9,143.92,53.41t107.73,15.5q58.59,0,89.92-22.39t31.31-66.62q0-24.7-13.8-43.94t-40.5-37q-26.72-17.81-108.89-56.86-77-36.19-115.48-69.5a260.55,260.55,0,0,1-61.48-77.53q-23-44.2-23-103.37,0-111.33,75.55-175t208.81-63.7q65.48,0,125,15.5t124.38,43.58l-57.42,138.31q-67.24-27.56-111.2-38.47a357.74,357.74,0,0,0-86.47-10.92q-50.58,0-77.59,23.55t-27,61.45q0,23.55,10.91,41.06t34.77,33.89q23.84,16.36,112.91,58.86,117.8,56.3,161.45,112.86T9613.54,1658.73Z"/><path d="M9926.65,1892.37H9751.51v-893h175.14Z"/><path d="M10517.69,1892.37l-33.87-87.72h-4.59q-44.2,55.69-91,77.2t-121.92,21.52q-92.39,0-145.45-52.81t-53.06-150.39q0-102.16,71.42-150.67t215.45-53.69l111.31-3.44v-28q0-97-99.83-97-76.9,0-180.73,46.5l-58-118.41q110.77-58.08,245.63-58.09,129.14,0,198,56.27T10640,1464.7v427.67Zm-51.67-298-67.66,2.3q-76.27,2.3-113.55,27.58t-37.27,77q0,74.13,84.86,74.13,60.77,0,97.19-35t36.42-93.09Z"/><path d="M11081.34,1903.37q-300,0-299.94-328.77,0-163.52,81.59-249.87t233.86-86.36q111.47,0,200,43.56l-51.73,135.34q-41.39-16.64-77-27.28a248.48,248.48,0,0,0-71.27-10.62q-136.83,0-136.81,193.88,0,188.13,136.8,188.13,50.58,0,93.7-13.5t86.22-42.2v150q-42.52,27-85.91,37.38T11081.34,1903.37Z"/><path d="M11593.21,1543.23l76.28-97.62L11849,1250.37h197.53l-254.73,278.5,270.25,363.5H11860l-184.69-260.14-75.17,60.3v199.84H11425v-893h175.14v398.14l-9.19,145.72Z"/></g></g></svg>